<svg xmlns="http://www.w3.org/2000/svg" width="720" height="460" viewBox="0 0 720 460">
  <rect width="100%" height="100%" fill="#fffdf7" />
  <text x="360.0" y="32" text-anchor="middle" font-size="22" font-family="Helvetica, Arial, sans-serif" fill="#1f2937">20260502T184238Z-smoke3 test calibration</text>
  <line x1="60" y1="400" x2="660" y2="400" stroke="#374151" stroke-width="2" />
  <line x1="60" y1="60" x2="60" y2="400" stroke="#374151" stroke-width="2" />
  <line x1="60.0" y1="400.0" x2="660.0" y2="60.0" stroke="#9ca3af" stroke-width="2" stroke-dasharray="8 6" />
  <text x="360.0" y="444" text-anchor="middle" font-size="14" font-family="Helvetica, Arial, sans-serif" fill="#374151">Predicted default probability</text>
  <text x="18" y="230.0" transform="rotate(-90 18 230.0)" text-anchor="middle" font-size="14" font-family="Helvetica, Arial, sans-serif" fill="#374151">Observed default rate</text>
  <text x="540" y="58" font-size="13" font-family="Helvetica, Arial, sans-serif" fill="#b91c1c">Raw</text>
  <line x1="490" y1="53" x2="530" y2="53" stroke="#b91c1c" stroke-width="3" />
  <text x="540" y="82" font-size="13" font-family="Helvetica, Arial, sans-serif" fill="#065f46">Calibrated</text>
  <line x1="490" y1="77" x2="530" y2="77" stroke="#065f46" stroke-width="3" />
  <polyline fill="none" stroke="#b91c1c" stroke-width="3" points="60.9,396.0 191.6,400.0 256.7,60.0 493.1,400.0 585.8,230.0 653.5,73.6" />
<circle cx="60.9" cy="396.0" r="4" fill="#b91c1c" />
<circle cx="191.6" cy="400.0" r="4" fill="#b91c1c" />
<circle cx="256.7" cy="60.0" r="4" fill="#b91c1c" />
<circle cx="493.1" cy="400.0" r="4" fill="#b91c1c" />
<circle cx="585.8" cy="230.0" r="4" fill="#b91c1c" />
<circle cx="653.5" cy="73.6" r="4" fill="#b91c1c" />
  <polyline fill="none" stroke="#065f46" stroke-width="3" points="60.9,396.0 191.4,400.0 256.5,60.0 493.1,400.0 586.0,230.0 653.7,73.6" />
<circle cx="60.9" cy="396.0" r="4" fill="#065f46" />
<circle cx="191.4" cy="400.0" r="4" fill="#065f46" />
<circle cx="256.5" cy="60.0" r="4" fill="#065f46" />
<circle cx="493.1" cy="400.0" r="4" fill="#065f46" />
<circle cx="586.0" cy="230.0" r="4" fill="#065f46" />
<circle cx="653.7" cy="73.6" r="4" fill="#065f46" />
</svg>
